<svg width="1440" height="437" viewBox="0 0 1440 437" fill="none" xmlns="http://www.w3.org/2000/svg">
<path opacity="0.5" d="M224 179.252C83.2 254.452 10.6667 247.252 -8 234.252L-2.5 447.252L1448.5 439.252V19.2519C1429.5 46.7519 1357 113.752 1219 161.752C1081 209.752 990.5 163.085 962.5 133.752C638 -139.248 400 85.2519 224 179.252Z" fill="url(#paint0_linear_543_4742)" stroke="white" stroke-width="4" stroke-linecap="round"/>
<circle cx="189.994" cy="196.275" r="7.27481" fill="white"/>
<line x1="190.512" y1="200.303" x2="190.512" y2="284.483" stroke="white" stroke-width="1.03926" stroke-dasharray="2.08 2.08"/>
<path d="M170.379 289.901H171.66V297.465C171.66 298.14 171.536 298.714 171.288 299.186C171.04 299.657 170.691 300.016 170.239 300.26C169.788 300.505 169.256 300.627 168.643 300.627C168.064 300.627 167.549 300.522 167.098 300.312C166.647 300.098 166.292 299.795 166.034 299.403C165.775 299.01 165.646 298.543 165.646 298.002H166.907C166.907 298.302 166.981 298.564 167.129 298.788C167.281 299.008 167.487 299.18 167.749 299.304C168.011 299.428 168.309 299.49 168.643 299.49C169.012 299.49 169.325 299.413 169.583 299.258C169.842 299.103 170.038 298.876 170.172 298.576C170.31 298.273 170.379 297.902 170.379 297.465V289.901ZM176.398 300.668C175.895 300.668 175.439 300.574 175.029 300.384C174.619 300.191 174.294 299.914 174.053 299.552C173.811 299.187 173.691 298.746 173.691 298.23C173.691 297.775 173.78 297.406 173.96 297.124C174.139 296.838 174.378 296.614 174.678 296.452C174.977 296.29 175.308 296.17 175.67 296.091C176.035 296.008 176.402 295.943 176.77 295.894C177.253 295.832 177.643 295.786 177.943 295.755C178.246 295.72 178.467 295.664 178.604 295.584C178.746 295.505 178.816 295.367 178.816 295.171V295.13C178.816 294.62 178.677 294.224 178.398 293.941C178.122 293.659 177.704 293.518 177.142 293.518C176.56 293.518 176.104 293.645 175.773 293.9C175.442 294.155 175.21 294.427 175.076 294.716L173.918 294.303C174.125 293.821 174.4 293.445 174.745 293.177C175.093 292.904 175.472 292.715 175.882 292.608C176.295 292.498 176.701 292.443 177.101 292.443C177.356 292.443 177.649 292.474 177.979 292.536C178.313 292.594 178.635 292.717 178.945 292.903C179.259 293.089 179.519 293.37 179.726 293.745C179.932 294.12 180.036 294.623 180.036 295.254V300.482H178.816V299.408H178.754C178.672 299.58 178.534 299.764 178.341 299.961C178.148 300.157 177.891 300.324 177.571 300.462C177.251 300.6 176.86 300.668 176.398 300.668ZM176.584 299.573C177.066 299.573 177.473 299.478 177.804 299.289C178.138 299.099 178.389 298.855 178.558 298.555C178.73 298.256 178.816 297.94 178.816 297.61V296.494C178.765 296.556 178.651 296.613 178.475 296.664C178.303 296.712 178.103 296.755 177.876 296.793C177.652 296.828 177.433 296.859 177.22 296.886C177.01 296.91 176.839 296.931 176.708 296.948C176.391 296.99 176.095 297.057 175.82 297.15C175.547 297.239 175.327 297.375 175.158 297.558C174.993 297.737 174.91 297.982 174.91 298.292C174.91 298.715 175.067 299.036 175.38 299.253C175.697 299.466 176.099 299.573 176.584 299.573ZM183.481 295.708V300.482H182.261V292.546H183.439V293.786H183.543C183.729 293.383 184.011 293.059 184.39 292.815C184.769 292.567 185.258 292.443 185.857 292.443C186.395 292.443 186.865 292.553 187.268 292.774C187.671 292.991 187.984 293.321 188.208 293.766C188.432 294.207 188.544 294.765 188.544 295.44V300.482H187.325V295.522C187.325 294.899 187.163 294.413 186.839 294.065C186.515 293.714 186.071 293.538 185.506 293.538C185.117 293.538 184.769 293.623 184.462 293.791C184.159 293.96 183.92 294.207 183.744 294.53C183.568 294.854 183.481 295.247 183.481 295.708ZM194.844 300.482V299.552L198.336 295.729C198.746 295.281 199.084 294.892 199.349 294.561C199.614 294.227 199.811 293.914 199.938 293.621C200.069 293.325 200.134 293.015 200.134 292.691C200.134 292.319 200.045 291.997 199.866 291.725C199.69 291.453 199.449 291.243 199.142 291.094C198.836 290.946 198.491 290.872 198.109 290.872C197.703 290.872 197.348 290.957 197.045 291.125C196.745 291.291 196.512 291.523 196.347 291.823C196.185 292.123 196.104 292.474 196.104 292.877H194.885C194.885 292.257 195.028 291.713 195.314 291.244C195.6 290.776 195.989 290.411 196.481 290.149C196.978 289.887 197.534 289.756 198.15 289.756C198.77 289.756 199.32 289.887 199.799 290.149C200.277 290.411 200.653 290.764 200.925 291.208C201.197 291.652 201.333 292.147 201.333 292.691C201.333 293.08 201.262 293.461 201.121 293.833C200.983 294.201 200.742 294.613 200.398 295.068C200.057 295.519 199.583 296.07 198.977 296.721L196.6 299.263V299.346H201.519V300.482H194.844ZM207.166 300.627C206.732 300.62 206.298 300.538 205.864 300.379C205.43 300.221 205.034 299.954 204.676 299.578C204.318 299.199 204.03 298.688 203.813 298.044C203.596 297.396 203.488 296.583 203.488 295.605C203.488 294.668 203.575 293.838 203.751 293.115C203.927 292.388 204.182 291.776 204.516 291.28C204.85 290.781 205.253 290.402 205.725 290.144C206.2 289.885 206.736 289.756 207.332 289.756C207.924 289.756 208.451 289.875 208.913 290.113C209.378 290.347 209.757 290.674 210.049 291.094C210.342 291.515 210.532 291.999 210.618 292.546H209.357C209.24 292.071 209.013 291.677 208.675 291.363C208.338 291.05 207.89 290.893 207.332 290.893C206.512 290.893 205.866 291.249 205.394 291.962C204.926 292.675 204.69 293.676 204.686 294.964H204.769C204.962 294.672 205.191 294.422 205.456 294.215C205.725 294.005 206.021 293.843 206.345 293.729C206.669 293.616 207.011 293.559 207.373 293.559C207.979 293.559 208.534 293.711 209.037 294.014C209.54 294.313 209.943 294.728 210.246 295.259C210.549 295.786 210.7 296.39 210.7 297.072C210.7 297.727 210.554 298.326 210.261 298.87C209.968 299.411 209.557 299.842 209.026 300.162C208.499 300.479 207.879 300.634 207.166 300.627ZM207.166 299.49C207.6 299.49 207.99 299.382 208.334 299.165C208.682 298.948 208.956 298.657 209.156 298.292C209.359 297.927 209.46 297.52 209.46 297.072C209.46 296.635 209.362 296.237 209.166 295.879C208.973 295.517 208.706 295.23 208.365 295.016C208.027 294.802 207.642 294.696 207.208 294.696C206.88 294.696 206.576 294.761 206.293 294.892C206.011 295.019 205.763 295.195 205.549 295.419C205.339 295.643 205.174 295.899 205.053 296.189C204.933 296.475 204.872 296.776 204.872 297.093C204.872 297.513 204.97 297.906 205.167 298.271C205.367 298.636 205.639 298.931 205.983 299.155C206.331 299.378 206.725 299.49 207.166 299.49ZM213.828 289.901V290.831C213.828 291.113 213.776 291.415 213.673 291.735C213.573 292.052 213.425 292.36 213.228 292.66C213.035 292.956 212.801 293.215 212.526 293.435L211.864 292.898C212.081 292.588 212.269 292.266 212.427 291.931C212.589 291.594 212.67 291.234 212.67 290.852V289.901H213.828Z" fill="white"/>
<circle cx="455.001" cy="49.2748" r="7.27481" fill="white"/>
<line x1="455.52" y1="56" x2="455.52" y2="288" stroke="white" stroke-width="1.03926" stroke-dasharray="2.08 2.08"/>
<path d="M431.807 300.482H430.464L434.349 289.901H435.672L439.557 300.482H438.214L435.052 291.575H434.969L431.807 300.482ZM432.303 296.349H437.718V297.486H432.303V296.349ZM441.04 303.458V292.546H442.218V293.807H442.363C442.452 293.669 442.576 293.494 442.735 293.28C442.896 293.063 443.127 292.87 443.427 292.701C443.73 292.529 444.14 292.443 444.657 292.443C445.325 292.443 445.914 292.61 446.424 292.944C446.933 293.278 447.331 293.752 447.617 294.365C447.903 294.978 448.046 295.701 448.046 296.535C448.046 297.375 447.903 298.104 447.617 298.721C447.331 299.334 446.935 299.809 446.429 300.147C445.922 300.481 445.339 300.648 444.677 300.648C444.168 300.648 443.759 300.563 443.453 300.395C443.146 300.222 442.91 300.028 442.745 299.811C442.58 299.59 442.452 299.408 442.363 299.263H442.259V303.458H441.04ZM442.239 296.514C442.239 297.114 442.326 297.642 442.502 298.101C442.678 298.555 442.934 298.912 443.272 299.17C443.609 299.425 444.023 299.552 444.512 299.552C445.022 299.552 445.447 299.418 445.788 299.149C446.133 298.877 446.391 298.512 446.563 298.054C446.739 297.592 446.827 297.079 446.827 296.514C446.827 295.956 446.741 295.453 446.568 295.006C446.4 294.554 446.143 294.198 445.798 293.936C445.457 293.671 445.029 293.538 444.512 293.538C444.016 293.538 443.599 293.664 443.262 293.915C442.924 294.163 442.669 294.511 442.497 294.959C442.325 295.403 442.239 295.922 442.239 296.514ZM449.906 300.482V292.546H451.084V293.745H451.167C451.311 293.352 451.573 293.034 451.952 292.789C452.331 292.545 452.758 292.422 453.233 292.422C453.323 292.422 453.435 292.424 453.569 292.427C453.704 292.431 453.805 292.436 453.874 292.443V293.683C453.833 293.673 453.738 293.657 453.59 293.636C453.445 293.612 453.292 293.6 453.13 293.6C452.744 293.6 452.4 293.681 452.097 293.843C451.797 294.002 451.559 294.222 451.384 294.504C451.212 294.783 451.125 295.102 451.125 295.46V300.482H449.906ZM459.391 300.482V299.552L462.884 295.729C463.294 295.281 463.631 294.892 463.896 294.561C464.162 294.227 464.358 293.914 464.485 293.621C464.616 293.325 464.682 293.015 464.682 292.691C464.682 292.319 464.592 291.997 464.413 291.725C464.237 291.453 463.996 291.243 463.69 291.094C463.383 290.946 463.039 290.872 462.656 290.872C462.25 290.872 461.895 290.957 461.592 291.125C461.292 291.291 461.06 291.523 460.894 291.823C460.733 292.123 460.652 292.474 460.652 292.877H459.432C459.432 292.257 459.575 291.713 459.861 291.244C460.147 290.776 460.536 290.411 461.029 290.149C461.525 289.887 462.081 289.756 462.698 289.756C463.318 289.756 463.867 289.887 464.346 290.149C464.825 290.411 465.2 290.764 465.472 291.208C465.744 291.652 465.88 292.147 465.88 292.691C465.88 293.08 465.81 293.461 465.669 293.833C465.531 294.201 465.29 294.613 464.945 295.068C464.604 295.519 464.131 296.07 463.524 296.721L461.148 299.263V299.346H466.066V300.482H459.391ZM471.714 300.627C471.28 300.62 470.846 300.538 470.412 300.379C469.978 300.221 469.582 299.954 469.223 299.578C468.865 299.199 468.577 298.688 468.36 298.044C468.143 297.396 468.035 296.583 468.035 295.605C468.035 294.668 468.123 293.838 468.298 293.115C468.474 292.388 468.729 291.776 469.063 291.28C469.397 290.781 469.8 290.402 470.272 290.144C470.748 289.885 471.283 289.756 471.879 289.756C472.471 289.756 472.999 289.875 473.46 290.113C473.925 290.347 474.304 290.674 474.597 291.094C474.89 291.515 475.079 291.999 475.165 292.546H473.904C473.787 292.071 473.56 291.677 473.222 291.363C472.885 291.05 472.437 290.893 471.879 290.893C471.059 290.893 470.413 291.249 469.941 291.962C469.473 292.675 469.237 293.676 469.234 294.964H469.316C469.509 294.672 469.738 294.422 470.003 294.215C470.272 294.005 470.568 293.843 470.892 293.729C471.216 293.616 471.559 293.559 471.92 293.559C472.527 293.559 473.081 293.711 473.584 294.014C474.087 294.313 474.49 294.728 474.793 295.259C475.096 295.786 475.248 296.39 475.248 297.072C475.248 297.727 475.101 298.326 474.809 298.87C474.516 299.411 474.104 299.842 473.574 300.162C473.047 300.479 472.427 300.634 471.714 300.627ZM471.714 299.49C472.148 299.49 472.537 299.382 472.881 299.165C473.229 298.948 473.503 298.657 473.703 298.292C473.906 297.927 474.008 297.52 474.008 297.072C474.008 296.635 473.91 296.237 473.713 295.879C473.52 295.517 473.253 295.23 472.912 295.016C472.575 294.802 472.189 294.696 471.755 294.696C471.428 294.696 471.123 294.761 470.841 294.892C470.558 295.019 470.31 295.195 470.097 295.419C469.886 295.643 469.721 295.899 469.6 296.189C469.48 296.475 469.42 296.776 469.42 297.093C469.42 297.513 469.518 297.906 469.714 298.271C469.914 298.636 470.186 298.931 470.531 299.155C470.878 299.378 471.273 299.49 471.714 299.49ZM478.375 289.901V290.831C478.375 291.113 478.323 291.415 478.22 291.735C478.12 292.052 477.972 292.36 477.776 292.66C477.583 292.956 477.348 293.215 477.073 293.435L476.412 292.898C476.629 292.588 476.816 292.266 476.975 291.931C477.137 291.594 477.218 291.234 477.218 290.852V289.901H478.375Z" fill="white"/>
<line x1="707.52" y1="14" x2="707.52" y2="284" stroke="white" stroke-width="1.03926" stroke-dasharray="2.08 2.08"/>
<path d="M689.076 289.901H690.358V297.465C690.358 298.14 690.234 298.714 689.986 299.186C689.738 299.657 689.388 300.016 688.937 300.26C688.485 300.505 687.953 300.627 687.34 300.627C686.762 300.627 686.247 300.522 685.795 300.312C685.344 300.098 684.989 299.795 684.731 299.403C684.473 299.01 684.343 298.543 684.343 298.002H685.604C685.604 298.302 685.678 298.564 685.826 298.788C685.978 299.008 686.185 299.18 686.446 299.304C686.708 299.428 687.006 299.49 687.34 299.49C687.709 299.49 688.022 299.413 688.281 299.258C688.539 299.103 688.735 298.876 688.87 298.576C689.007 298.273 689.076 297.902 689.076 297.465V289.901ZM697.762 297.238V292.546H698.981V300.482H697.762V299.139H697.679C697.493 299.542 697.204 299.885 696.811 300.167C696.418 300.446 695.922 300.586 695.323 300.586C694.827 300.586 694.386 300.477 694 300.26C693.614 300.04 693.311 299.709 693.091 299.268C692.87 298.824 692.76 298.264 692.76 297.589V292.546H693.979V297.506C693.979 298.085 694.141 298.547 694.465 298.891C694.792 299.236 695.209 299.408 695.716 299.408C696.019 299.408 696.327 299.33 696.64 299.175C696.957 299.02 697.222 298.783 697.436 298.462C697.653 298.142 697.762 297.734 697.762 297.238ZM702.434 289.901V300.482H701.214V289.901H702.434ZM708.738 300.482V299.552L712.231 295.729C712.641 295.281 712.979 294.892 713.244 294.561C713.509 294.227 713.705 293.914 713.833 293.621C713.964 293.325 714.029 293.015 714.029 292.691C714.029 292.319 713.94 291.997 713.76 291.725C713.585 291.453 713.344 291.243 713.037 291.094C712.731 290.946 712.386 290.872 712.004 290.872C711.597 290.872 711.243 290.957 710.939 291.125C710.64 291.291 710.407 291.523 710.242 291.823C710.08 292.123 709.999 292.474 709.999 292.877H708.78C708.78 292.257 708.923 291.713 709.209 291.244C709.494 290.776 709.884 290.411 710.376 290.149C710.872 289.887 711.429 289.756 712.045 289.756C712.665 289.756 713.214 289.887 713.693 290.149C714.172 290.411 714.548 290.764 714.82 291.208C715.092 291.652 715.228 292.147 715.228 292.691C715.228 293.08 715.157 293.461 715.016 293.833C714.878 294.201 714.637 294.613 714.293 295.068C713.952 295.519 713.478 296.07 712.872 296.721L710.495 299.263V299.346H715.414V300.482H708.738ZM721.061 300.627C720.627 300.62 720.193 300.538 719.759 300.379C719.325 300.221 718.929 299.954 718.571 299.578C718.212 299.199 717.925 298.688 717.708 298.044C717.491 297.396 717.382 296.583 717.382 295.605C717.382 294.668 717.47 293.838 717.646 293.115C717.822 292.388 718.076 291.776 718.411 291.28C718.745 290.781 719.148 290.402 719.62 290.144C720.095 289.885 720.631 289.756 721.226 289.756C721.819 289.756 722.346 289.875 722.807 290.113C723.272 290.347 723.651 290.674 723.944 291.094C724.237 291.515 724.426 291.999 724.512 292.546H723.252C723.135 292.071 722.907 291.677 722.57 291.363C722.232 291.05 721.784 290.893 721.226 290.893C720.407 290.893 719.761 291.249 719.289 291.962C718.82 292.675 718.584 293.676 718.581 294.964H718.664C718.857 294.672 719.086 294.422 719.351 294.215C719.62 294.005 719.916 293.843 720.24 293.729C720.563 293.616 720.906 293.559 721.268 293.559C721.874 293.559 722.429 293.711 722.931 294.014C723.434 294.313 723.837 294.728 724.14 295.259C724.444 295.786 724.595 296.39 724.595 297.072C724.595 297.727 724.449 298.326 724.156 298.87C723.863 299.411 723.452 299.842 722.921 300.162C722.394 300.479 721.774 300.634 721.061 300.627ZM721.061 299.49C721.495 299.49 721.884 299.382 722.229 299.165C722.577 298.948 722.851 298.657 723.05 298.292C723.254 297.927 723.355 297.52 723.355 297.072C723.355 296.635 723.257 296.237 723.061 295.879C722.868 295.517 722.601 295.23 722.26 295.016C721.922 294.802 721.536 294.696 721.102 294.696C720.775 294.696 720.47 294.761 720.188 294.892C719.905 295.019 719.657 295.195 719.444 295.419C719.234 295.643 719.068 295.899 718.948 296.189C718.827 296.475 718.767 296.776 718.767 297.093C718.767 297.513 718.865 297.906 719.062 298.271C719.261 298.636 719.533 298.931 719.878 299.155C720.226 299.378 720.62 299.49 721.061 299.49ZM727.722 289.901V290.831C727.722 291.113 727.671 291.415 727.567 291.735C727.467 292.052 727.319 292.36 727.123 292.66C726.93 292.956 726.696 293.215 726.42 293.435L725.759 292.898C725.976 292.588 726.164 292.266 726.322 291.931C726.484 291.594 726.565 291.234 726.565 290.852V289.901H727.722Z" fill="white"/>
<circle cx="963.197" cy="134.275" r="7.27481" fill="white"/>
<line x1="963.52" y1="141" x2="963.52" y2="290" stroke="white" stroke-width="1.03926" stroke-dasharray="2.08 2.08"/>
<path d="M952.004 295.192C952.004 296.308 951.802 297.272 951.399 298.085C950.996 298.898 950.443 299.525 949.741 299.966C949.038 300.407 948.235 300.627 947.333 300.627C946.43 300.627 945.628 300.407 944.925 299.966C944.222 299.525 943.67 298.898 943.267 298.085C942.864 297.272 942.662 296.308 942.662 295.192C942.662 294.076 942.864 293.111 943.267 292.298C943.67 291.485 944.222 290.858 944.925 290.418C945.628 289.977 946.43 289.756 947.333 289.756C948.235 289.756 949.038 289.977 949.741 290.418C950.443 290.858 950.996 291.485 951.399 292.298C951.802 293.111 952.004 294.076 952.004 295.192ZM950.764 295.192C950.764 294.275 950.61 293.502 950.304 292.872C950.001 292.241 949.589 291.764 949.069 291.441C948.552 291.117 947.974 290.955 947.333 290.955C946.692 290.955 946.112 291.117 945.592 291.441C945.075 291.764 944.663 292.241 944.357 292.872C944.054 293.502 943.902 294.275 943.902 295.192C943.902 296.108 944.054 296.881 944.357 297.512C944.663 298.142 945.075 298.619 945.592 298.943C946.112 299.267 946.692 299.428 947.333 299.428C947.974 299.428 948.552 299.267 949.069 298.943C949.589 298.619 950.001 298.142 950.304 297.512C950.61 296.881 950.764 296.108 950.764 295.192ZM957.217 300.648C956.473 300.648 955.832 300.472 955.295 300.121C954.758 299.769 954.344 299.285 954.055 298.669C953.766 298.052 953.621 297.348 953.621 296.556C953.621 295.75 953.769 295.038 954.065 294.422C954.365 293.802 954.782 293.318 955.316 292.97C955.853 292.619 956.48 292.443 957.196 292.443C957.754 292.443 958.257 292.546 958.705 292.753C959.153 292.96 959.52 293.249 959.805 293.621C960.091 293.993 960.269 294.427 960.338 294.923H959.118C959.025 294.561 958.819 294.241 958.498 293.962C958.181 293.68 957.754 293.538 957.217 293.538C956.742 293.538 956.325 293.662 955.967 293.91C955.612 294.155 955.334 294.501 955.135 294.949C954.938 295.393 954.84 295.915 954.84 296.514C954.84 297.127 954.937 297.661 955.13 298.116C955.326 298.571 955.601 298.924 955.956 299.175C956.314 299.427 956.735 299.552 957.217 299.552C957.534 299.552 957.821 299.497 958.08 299.387C958.338 299.277 958.557 299.118 958.736 298.912C958.915 298.705 959.042 298.457 959.118 298.168H960.338C960.269 298.636 960.098 299.058 959.826 299.434C959.557 299.806 959.201 300.102 958.757 300.322C958.316 300.539 957.802 300.648 957.217 300.648ZM965.572 292.546V293.58H961.459V292.546H965.572ZM962.658 290.645H963.877V298.209C963.877 298.553 963.927 298.812 964.027 298.984C964.13 299.153 964.261 299.267 964.419 299.325C964.581 299.38 964.752 299.408 964.931 299.408C965.065 299.408 965.175 299.401 965.262 299.387C965.348 299.37 965.417 299.356 965.468 299.346L965.716 300.441C965.634 300.472 965.518 300.503 965.37 300.534C965.222 300.569 965.034 300.586 964.807 300.586C964.462 300.586 964.125 300.512 963.794 300.364C963.467 300.215 963.195 299.99 962.978 299.687C962.764 299.384 962.658 299.001 962.658 298.54V290.645ZM971.477 300.482V299.552L974.97 295.729C975.38 295.281 975.717 294.892 975.983 294.561C976.248 294.227 976.444 293.914 976.572 293.621C976.703 293.325 976.768 293.015 976.768 292.691C976.768 292.319 976.678 291.997 976.499 291.725C976.324 291.453 976.082 291.243 975.776 291.094C975.469 290.946 975.125 290.872 974.743 290.872C974.336 290.872 973.981 290.957 973.678 291.125C973.379 291.291 973.146 291.523 972.981 291.823C972.819 292.123 972.738 292.474 972.738 292.877H971.519C971.519 292.257 971.661 291.713 971.947 291.244C972.233 290.776 972.622 290.411 973.115 290.149C973.611 289.887 974.167 289.756 974.784 289.756C975.404 289.756 975.953 289.887 976.432 290.149C976.911 290.411 977.286 290.764 977.558 291.208C977.831 291.652 977.967 292.147 977.967 292.691C977.967 293.08 977.896 293.461 977.755 293.833C977.617 294.201 977.376 294.613 977.031 295.068C976.69 295.519 976.217 296.07 975.611 296.721L973.234 299.263V299.346H978.153V300.482H971.477ZM983.8 300.627C983.366 300.62 982.932 300.538 982.498 300.379C982.064 300.221 981.668 299.954 981.31 299.578C980.951 299.199 980.664 298.688 980.447 298.044C980.23 297.396 980.121 296.583 980.121 295.605C980.121 294.668 980.209 293.838 980.385 293.115C980.56 292.388 980.815 291.776 981.149 291.28C981.483 290.781 981.886 290.402 982.358 290.144C982.834 289.885 983.369 289.756 983.965 289.756C984.558 289.756 985.085 289.875 985.546 290.113C986.011 290.347 986.39 290.674 986.683 291.094C986.976 291.515 987.165 291.999 987.251 292.546H985.991C985.874 292.071 985.646 291.677 985.309 291.363C984.971 291.05 984.523 290.893 983.965 290.893C983.145 290.893 982.5 291.249 982.028 291.962C981.559 292.675 981.323 293.676 981.32 294.964H981.403C981.595 294.672 981.824 294.422 982.09 294.215C982.358 294.005 982.655 293.843 982.978 293.729C983.302 293.616 983.645 293.559 984.007 293.559C984.613 293.559 985.167 293.711 985.67 294.014C986.173 294.313 986.576 294.728 986.879 295.259C987.182 295.786 987.334 296.39 987.334 297.072C987.334 297.727 987.188 298.326 986.895 298.87C986.602 299.411 986.19 299.842 985.66 300.162C985.133 300.479 984.513 300.634 983.8 300.627ZM983.8 299.49C984.234 299.49 984.623 299.382 984.968 299.165C985.316 298.948 985.589 298.657 985.789 298.292C985.992 297.927 986.094 297.52 986.094 297.072C986.094 296.635 985.996 296.237 985.799 295.879C985.607 295.517 985.34 295.23 984.999 295.016C984.661 294.802 984.275 294.696 983.841 294.696C983.514 294.696 983.209 294.761 982.927 294.892C982.644 295.019 982.396 295.195 982.183 295.419C981.973 295.643 981.807 295.899 981.687 296.189C981.566 296.475 981.506 296.776 981.506 297.093C981.506 297.513 981.604 297.906 981.8 298.271C982 298.636 982.272 298.931 982.617 299.155C982.965 299.378 983.359 299.49 983.8 299.49ZM990.461 289.901V290.831C990.461 291.113 990.41 291.415 990.306 291.735C990.206 292.052 990.058 292.36 989.862 292.66C989.669 292.956 989.435 293.215 989.159 293.435L988.498 292.898C988.715 292.588 988.903 292.266 989.061 291.931C989.223 291.594 989.304 291.234 989.304 290.852V289.901H990.461Z" fill="white"/>
<circle cx="1211.58" cy="164.968" r="7.27481" fill="white"/>
<line x1="1212.1" y1="172.242" x2="1212.1" y2="288.639" stroke="white" stroke-width="1.03926" stroke-dasharray="2.08 2.08"/>
<path d="M1189.75 300.482H1186.48V289.901H1189.89C1190.92 289.901 1191.8 290.113 1192.53 290.536C1193.26 290.957 1193.82 291.561 1194.2 292.35C1194.59 293.135 1194.79 294.076 1194.79 295.171C1194.79 296.273 1194.59 297.222 1194.2 298.018C1193.81 298.81 1193.24 299.42 1192.48 299.847C1191.73 300.271 1190.82 300.482 1189.75 300.482ZM1187.76 299.346H1189.66C1190.54 299.346 1191.26 299.177 1191.84 298.839C1192.41 298.502 1192.84 298.021 1193.12 297.398C1193.41 296.774 1193.55 296.032 1193.55 295.171C1193.55 294.317 1193.41 293.581 1193.13 292.965C1192.85 292.345 1192.43 291.869 1191.88 291.539C1191.33 291.205 1190.63 291.038 1189.81 291.038H1187.76V299.346ZM1200.1 300.648C1199.34 300.648 1198.68 300.479 1198.12 300.141C1197.57 299.8 1197.14 299.325 1196.84 298.715C1196.55 298.102 1196.4 297.389 1196.4 296.576C1196.4 295.763 1196.55 295.047 1196.84 294.427C1197.14 293.804 1197.56 293.318 1198.1 292.97C1198.63 292.619 1199.26 292.443 1199.98 292.443C1200.39 292.443 1200.8 292.512 1201.2 292.65C1201.6 292.787 1201.97 293.011 1202.3 293.321C1202.63 293.628 1202.9 294.034 1203.09 294.541C1203.29 295.047 1203.39 295.67 1203.39 296.411V296.928H1197.27V295.874H1202.15C1202.15 295.426 1202.06 295.026 1201.88 294.675C1201.7 294.324 1201.45 294.046 1201.12 293.843C1200.8 293.64 1200.42 293.538 1199.98 293.538C1199.49 293.538 1199.07 293.659 1198.72 293.9C1198.36 294.138 1198.09 294.448 1197.9 294.83C1197.71 295.212 1197.62 295.622 1197.62 296.06V296.762C1197.62 297.362 1197.72 297.87 1197.93 298.287C1198.14 298.7 1198.43 299.015 1198.8 299.232C1199.18 299.446 1199.61 299.552 1200.1 299.552C1200.42 299.552 1200.71 299.508 1200.97 299.418C1201.23 299.325 1201.46 299.187 1201.64 299.005C1201.83 298.819 1201.98 298.588 1202.08 298.312L1203.26 298.643C1203.14 299.043 1202.93 299.394 1202.64 299.697C1202.34 299.997 1201.98 300.231 1201.55 300.4C1201.12 300.565 1200.64 300.648 1200.1 300.648ZM1208.47 300.648C1207.72 300.648 1207.08 300.472 1206.54 300.121C1206.01 299.769 1205.59 299.285 1205.3 298.669C1205.01 298.052 1204.87 297.348 1204.87 296.556C1204.87 295.75 1205.02 295.038 1205.31 294.422C1205.61 293.802 1206.03 293.318 1206.56 292.97C1207.1 292.619 1207.73 292.443 1208.44 292.443C1209 292.443 1209.51 292.546 1209.95 292.753C1210.4 292.96 1210.77 293.249 1211.05 293.621C1211.34 293.993 1211.52 294.427 1211.59 294.923H1210.37C1210.27 294.561 1210.07 294.241 1209.75 293.962C1209.43 293.68 1209 293.538 1208.47 293.538C1207.99 293.538 1207.57 293.662 1207.21 293.91C1206.86 294.155 1206.58 294.501 1206.38 294.949C1206.19 295.393 1206.09 295.915 1206.09 296.514C1206.09 297.127 1206.18 297.661 1206.38 298.116C1206.57 298.571 1206.85 298.924 1207.2 299.175C1207.56 299.427 1207.98 299.552 1208.47 299.552C1208.78 299.552 1209.07 299.497 1209.33 299.387C1209.59 299.277 1209.8 299.118 1209.98 298.912C1210.16 298.705 1210.29 298.457 1210.37 298.168H1211.59C1211.52 298.636 1211.35 299.058 1211.07 299.434C1210.81 299.806 1210.45 300.102 1210 300.322C1209.56 300.539 1209.05 300.648 1208.47 300.648ZM1217.44 300.482V299.552L1220.93 295.729C1221.34 295.281 1221.68 294.892 1221.95 294.561C1222.21 294.227 1222.41 293.914 1222.53 293.621C1222.67 293.325 1222.73 293.015 1222.73 292.691C1222.73 292.319 1222.64 291.997 1222.46 291.725C1222.29 291.453 1222.04 291.243 1221.74 291.094C1221.43 290.946 1221.09 290.872 1220.71 290.872C1220.3 290.872 1219.94 290.957 1219.64 291.125C1219.34 291.291 1219.11 291.523 1218.94 291.823C1218.78 292.123 1218.7 292.474 1218.7 292.877H1217.48C1217.48 292.257 1217.62 291.713 1217.91 291.244C1218.2 290.776 1218.58 290.411 1219.08 290.149C1219.57 289.887 1220.13 289.756 1220.75 289.756C1221.37 289.756 1221.92 289.887 1222.39 290.149C1222.87 290.411 1223.25 290.764 1223.52 291.208C1223.79 291.652 1223.93 292.147 1223.93 292.691C1223.93 293.08 1223.86 293.461 1223.72 293.833C1223.58 294.201 1223.34 294.613 1222.99 295.068C1222.65 295.519 1222.18 296.07 1221.57 296.721L1219.2 299.263V299.346H1224.12V300.482H1217.44ZM1229.76 300.627C1229.33 300.62 1228.89 300.538 1228.46 300.379C1228.03 300.221 1227.63 299.954 1227.27 299.578C1226.91 299.199 1226.63 298.688 1226.41 298.044C1226.19 297.396 1226.08 296.583 1226.08 295.605C1226.08 294.668 1226.17 293.838 1226.35 293.115C1226.52 292.388 1226.78 291.776 1227.11 291.28C1227.45 290.781 1227.85 290.402 1228.32 290.144C1228.8 289.885 1229.33 289.756 1229.93 289.756C1230.52 289.756 1231.05 289.875 1231.51 290.113C1231.97 290.347 1232.35 290.674 1232.65 291.094C1232.94 291.515 1233.13 291.999 1233.21 292.546H1231.95C1231.84 292.071 1231.61 291.677 1231.27 291.363C1230.93 291.05 1230.49 290.893 1229.93 290.893C1229.11 290.893 1228.46 291.249 1227.99 291.962C1227.52 292.675 1227.29 293.676 1227.28 294.964H1227.37C1227.56 294.672 1227.79 294.422 1228.05 294.215C1228.32 294.005 1228.62 293.843 1228.94 293.729C1229.26 293.616 1229.61 293.559 1229.97 293.559C1230.58 293.559 1231.13 293.711 1231.63 294.014C1232.14 294.313 1232.54 294.728 1232.84 295.259C1233.14 295.786 1233.3 296.39 1233.3 297.072C1233.3 297.727 1233.15 298.326 1232.86 298.87C1232.56 299.411 1232.15 299.842 1231.62 300.162C1231.1 300.479 1230.48 300.634 1229.76 300.627ZM1229.76 299.49C1230.2 299.49 1230.59 299.382 1230.93 299.165C1231.28 298.948 1231.55 298.657 1231.75 298.292C1231.95 297.927 1232.06 297.52 1232.06 297.072C1232.06 296.635 1231.96 296.237 1231.76 295.879C1231.57 295.517 1231.3 295.23 1230.96 295.016C1230.62 294.802 1230.24 294.696 1229.8 294.696C1229.48 294.696 1229.17 294.761 1228.89 294.892C1228.61 295.019 1228.36 295.195 1228.15 295.419C1227.94 295.643 1227.77 295.899 1227.65 296.189C1227.53 296.475 1227.47 296.776 1227.47 297.093C1227.47 297.513 1227.57 297.906 1227.76 298.271C1227.96 298.636 1228.23 298.931 1228.58 299.155C1228.93 299.378 1229.32 299.49 1229.76 299.49ZM1236.42 289.901V290.831C1236.42 291.113 1236.37 291.415 1236.27 291.735C1236.17 292.052 1236.02 292.36 1235.82 292.66C1235.63 292.956 1235.4 293.215 1235.12 293.435L1234.46 292.898C1234.68 292.588 1234.87 292.266 1235.02 291.931C1235.19 291.594 1235.27 291.234 1235.27 290.852V289.901H1236.42Z" fill="white"/>
<circle cx="707.275" cy="7.27481" r="7.27481" fill="white"/>
<defs>
<linearGradient id="paint0_linear_543_4742" x1="720.25" y1="3" x2="720.25" y2="438" gradientUnits="userSpaceOnUse">
<stop stop-color="#DDDDDD"/>
<stop offset="1" stop-color="#737373" stop-opacity="0"/>
</linearGradient>
</defs>
</svg>
