<svg width="34" height="34" viewBox="0 0 34 34" fill="none" xmlns="http://www.w3.org/2000/svg">
<circle cx="16.7698" cy="16.7698" r="16.7698" fill="#F5F5F5"/>
<path d="M8.5341 12.201C10.4141 8.86765 14.0274 8.44098 17.1874 8.86765L17.8274 8.96098C17.7874 9.04098 18.1341 9.12098 18.6008 9.18765C17.8761 11.179 17.506 13.2819 17.5074 15.401C17.5074 17.0943 17.7341 18.7476 18.2008 20.3876L18.0141 20.4676L17.5874 20.5876L15.5474 21.2676C15.1874 21.401 14.7608 21.5343 14.3074 21.6143L13.9608 21.6676C13.8541 21.681 13.7474 21.681 13.6541 21.6943L13.2674 22.4943C13.2408 22.561 13.2008 22.6276 13.1741 22.6943L13.0674 22.881C12.8274 23.321 12.0408 24.7343 10.3208 24.7343C8.6541 24.7343 7.8141 23.4143 7.50743 22.7743C7.14743 22.0276 6.98743 21.161 7.00077 20.4276L7.0141 19.8276C7.04077 18.9343 7.10743 17.7743 7.28077 16.601C7.48077 15.1743 7.82743 13.4543 8.5341 12.201ZM23.5874 9.14765C24.5608 9.01431 25.5474 9.34765 26.2274 10.041C26.9341 10.7876 27.2274 11.8943 26.8008 12.9876C26.5341 13.641 26.1608 14.3876 25.6674 15.041C25.1874 15.6943 24.4941 16.4143 23.5341 16.8276C23.1474 16.9876 22.7474 17.121 22.4141 17.2143L22.0274 17.321C21.6808 17.4276 21.4408 17.5076 21.2408 17.601L21.1208 17.7476L20.7341 18.2943L20.6141 18.4543C20.3874 18.761 20.0941 19.1343 19.6808 19.481C19.3341 18.1343 19.1741 16.7743 19.1741 15.401C19.1741 13.241 19.5874 11.1343 20.4408 9.05431L20.3341 9.32098L20.4674 9.30765C20.7074 9.33431 20.8808 9.33431 21.0408 9.34765H21.4408C21.7874 9.34765 22.6274 9.28098 23.5874 9.14765Z" fill="black"/>
</svg>
